<svg xmlns:dc="http://purl.org/dc/elements/1.1/" xmlns:cc="http://creativecommons.org/ns#" xmlns:rdf="http://www.w3.org/1999/02/22-rdf-syntax-ns#" xmlns:svg="http://www.w3.org/2000/svg" xmlns="http://www.w3.org/2000/svg" xmlns:sodipodi="http://sodipodi.sourceforge.net/DTD/sodipodi-0.dtd" xmlns:inkscape="http://www.inkscape.org/namespaces/inkscape" viewBox="0 0 16.933333 21.1666675" version="1.1" enable-background="new" x="0px" y="0px"><g><path style="color:#000000;" d="m 2.5386047,3.0468422 c -0.820813,0 -1.489831,0.6674681 -1.489831,1.4882812 v 1.4314372 1.8479491 4.5821493 c 0,0.820814 0.669018,1.489832 1.489831,1.489832 H 14.394212 c 0.820814,0 1.490348,-0.669018 1.490348,-1.489832 V 7.8145097 5.9665606 4.5351234 c 0,-0.8208131 -0.669534,-1.4882812 -1.490348,-1.4882812 z m 0,0.5291667 H 14.394212 c 0.536808,0 0.961182,0.4223064 0.961182,0.9591145 V 5.7009438 H 1.5779397 V 4.5351234 c 0,-0.5368081 0.423857,-0.9591145 0.960665,-0.9591145 z M 1.5779397,6.2306272 H 15.355394 V 7.548893 H 1.5779397 Z m 0,1.8474323 H 15.355394 v 4.3185995 c 0,0.536809 -0.424374,0.960665 -0.961182,0.960665 H 2.5386047 c -0.536808,0 -0.960665,-0.423856 -0.960665,-0.960665 z m 1.619023,1.7461467 a 0.26464861,0.26464861 0 1 0 0,0.5291668 h 3.330029 a 0.26464861,0.26464861 0 0 0 0,-0.5291668 z m 0,1.4298868 a 0.2646485,0.2646485 0 1 0 0,0.529167 h 1.422135 a 0.2646485,0.2646485 0 1 0 0,-0.529167 z"/></g></svg>