<svg xmlns="http://www.w3.org/2000/svg" xmlns:xlink="http://www.w3.org/1999/xlink" version="1.1" x="0px" y="0px" viewBox="0 0 100 125" enable-background="new 0 0 100 100" xml:space="preserve"><path d="M-114.087,69.858c-2.848,0-5.379-1.386-6.953-3.518c-1.573,2.132-4.103,3.518-6.949,3.518c-2.848,0-5.378-1.386-6.952-3.518  c-1.573,2.132-4.103,3.518-6.949,3.518c-2.85,0-5.382-1.386-6.957-3.519c-1.574,2.133-4.104,3.519-6.951,3.519  c-4.763,0-8.638-3.873-8.638-8.635v-5.562c-8.25-1.489-14.294-8.613-14.294-17.157V8.925c0-9.622,7.827-17.45,17.447-17.45h51.9  c9.621,0,17.449,7.828,17.449,17.45v29.58c0,8.121-5.714,15.178-13.514,16.98v5.738C-105.449,65.985-109.324,69.858-114.087,69.858z   M-119.357,61.224c0,2.904,2.364,5.268,5.27,5.268c2.906,0,5.271-2.363,5.271-5.268v-7.135c0-0.838,0.616-1.548,1.445-1.667  c6.88-0.983,12.068-6.967,12.068-13.917V8.925c0-7.765-6.317-14.083-14.082-14.083h-51.9c-7.764,0-14.08,6.318-14.08,14.083v29.58  c0,7.313,5.488,13.338,12.767,14.013c0.866,0.081,1.528,0.808,1.528,1.677v7.029c0,2.904,2.364,5.268,5.271,5.268  c2.904,0,5.267-2.363,5.267-5.268c0-0.93,0.754-1.684,1.684-1.684s1.684,0.754,1.684,1.684c0,2.904,2.366,5.268,5.274,5.268  c2.903,0,5.265-2.363,5.265-5.268c0-0.93,0.754-1.684,1.684-1.684c0.93,0,1.684,0.754,1.684,1.684c0,2.904,2.363,5.268,5.269,5.268  c2.903,0,5.266-2.363,5.266-5.268c0-0.93,0.754-1.684,1.684-1.684S-119.357,60.294-119.357,61.224z"/><path d="M-140.562,25.112c0,7.676-6.226,13.898-13.906,13.898l0,0c-7.68,0-13.902-6.223-13.902-13.898l0,0  c0-7.683,6.222-13.912,13.902-13.912l0,0C-146.789,11.201-140.562,17.429-140.562,25.112L-140.562,25.112z"/><path d="M-102.296,25.112c0,7.676-6.229,13.898-13.906,13.898l0,0c-7.68,0-13.902-6.223-13.902-13.898l0,0  c0-7.683,6.223-13.912,13.902-13.912l0,0C-108.525,11.201-102.296,17.429-102.296,25.112L-102.296,25.112z"/><path d="M-127.3,42.548l-4.162-5.449c-0.928-1.209-2.395-1.941-3.926-1.941c-1.527,0-2.995,0.732-3.922,1.941l-4.166,5.449  c-1.139,1.502-1.335,3.486-0.498,5.184c0.839,1.693,2.526,2.744,4.426,2.744h8.325c1.895,0,3.584-1.051,4.42-2.748  C-125.958,46.036-126.156,44.05-127.3,42.548z"/><path d="M87.687,36.198H12.311c-3.512,0-6.369,2.856-6.369,6.368v14.865c0,3.513,2.857,6.37,6.369,6.37h75.376  c3.514,0,6.372-2.857,6.372-6.37V42.566C94.059,39.055,91.2,36.198,87.687,36.198z M91.936,57.432c0,2.342-1.906,4.247-4.249,4.247  H12.311c-2.341,0-4.246-1.905-4.246-4.247V42.566c0-2.341,1.905-4.245,4.246-4.245h75.376c2.343,0,4.249,1.904,4.249,4.245V57.432z"/><path d="M18.258,48.014c-0.11,0-0.211,0.02-0.32,0.043c-0.009,0.002-0.071,0.016-0.082,0.018l-1.482,0.496v-1.637  c0-0.66-0.335-0.996-0.997-0.996s-0.998,0.336-0.998,0.996v1.639l-1.562-0.506c-0.142-0.027-0.282-0.053-0.396-0.053  c-0.422,0-0.737,0.256-0.854,0.672c-0.095,0.223-0.095,0.387-0.095,0.496c0,0.572,0.54,0.754,0.721,0.816l1.486,0.475l-1.143,1.613  c-0.186,0.215-0.282,0.445-0.282,0.662c0,0.469,0.642,0.973,1.094,0.973c0.197,0,0.491-0.082,0.778-0.479l1.225-1.721l1.223,1.719  c0.276,0.396,0.576,0.48,0.78,0.48c0.433,0,1.071-0.514,1.071-0.973c0-0.236-0.091-0.465-0.247-0.645l-1.177-1.631l1.511-0.479  c0.334-0.109,0.718-0.305,0.718-0.812C19.23,48.459,18.726,48.014,18.258,48.014z"/><path d="M29.808,48.014c-0.111,0-0.213,0.02-0.319,0.043c-0.011,0.002-0.074,0.016-0.082,0.018l-1.484,0.496v-1.637  c0-0.66-0.333-0.996-0.996-0.996s-0.999,0.336-0.999,0.996v1.639l-1.561-0.506c-0.143-0.027-0.282-0.053-0.396-0.053  c-0.422,0-0.737,0.256-0.853,0.672c-0.095,0.223-0.095,0.387-0.095,0.496c0,0.572,0.54,0.754,0.72,0.816l1.487,0.475l-1.142,1.613  c-0.188,0.215-0.285,0.445-0.285,0.662c0,0.469,0.644,0.973,1.096,0.973c0.197,0,0.49-0.082,0.779-0.479l1.223-1.721l1.224,1.719  c0.275,0.396,0.577,0.48,0.78,0.48c0.432,0,1.07-0.514,1.07-0.973c0-0.236-0.089-0.465-0.245-0.645l-1.178-1.631l1.51-0.479  c0.336-0.109,0.72-0.305,0.72-0.812C30.781,48.459,30.275,48.014,29.808,48.014z"/><path d="M41.356,48.014c-0.11,0-0.211,0.02-0.319,0.043c-0.009,0.002-0.071,0.016-0.083,0.018l-1.481,0.496v-1.637  c0-0.66-0.336-0.996-0.997-0.996c-0.663,0-0.998,0.336-0.998,0.996v1.639l-1.562-0.506c-0.141-0.027-0.281-0.053-0.396-0.053  c-0.422,0-0.736,0.256-0.854,0.672c-0.095,0.223-0.095,0.387-0.095,0.496c0,0.572,0.539,0.754,0.722,0.816l1.486,0.475l-1.144,1.613  c-0.185,0.215-0.282,0.445-0.282,0.662c0,0.469,0.643,0.973,1.095,0.973c0.196,0,0.491-0.082,0.777-0.479l1.225-1.721l1.224,1.719  c0.276,0.396,0.575,0.48,0.779,0.48c0.433,0,1.071-0.514,1.071-0.973c0-0.236-0.091-0.465-0.247-0.645l-1.176-1.631l1.51-0.479  c0.335-0.109,0.719-0.305,0.719-0.812C42.33,48.459,41.824,48.014,41.356,48.014z"/><path d="M52.906,48.014c-0.111,0-0.213,0.02-0.319,0.043c-0.011,0.002-0.073,0.016-0.082,0.018l-1.483,0.496v-1.637  c0-0.66-0.333-0.996-0.997-0.996c-0.663,0-0.999,0.336-0.999,0.996v1.639l-1.561-0.506c-0.142-0.027-0.281-0.053-0.396-0.053  c-0.422,0-0.737,0.256-0.853,0.672c-0.096,0.223-0.096,0.387-0.096,0.496c0,0.572,0.54,0.754,0.72,0.816l1.487,0.475l-1.142,1.613  c-0.187,0.215-0.284,0.445-0.284,0.662c0,0.469,0.643,0.973,1.095,0.973c0.198,0,0.49-0.082,0.779-0.479L50,51.521l1.224,1.719  c0.274,0.396,0.576,0.48,0.779,0.48c0.433,0,1.07-0.514,1.07-0.973c0-0.236-0.09-0.465-0.246-0.645l-1.177-1.631l1.51-0.479  c0.336-0.109,0.72-0.305,0.72-0.812C53.88,48.459,53.375,48.014,52.906,48.014z"/></svg>