<svg xmlns="http://www.w3.org/2000/svg" xmlns:xlink="http://www.w3.org/1999/xlink" viewBox="0 0 96 120" version="1.1" x="0px" y="0px"><title>Settings</title><desc>Created with Sketch.</desc><g stroke="none" stroke-width="1" fill="none" fill-rule="evenodd"><g fill-rule="nonzero" fill="#000000"><path d="M47.0732536,30 C45.9686841,30 45.0732536,29.1045695 45.0732536,28 C45.0732536,26.8954305 45.9686841,26 47.0732536,26 L73,26 C74.1045695,26 75,26.8954305 75,28 C75,29.1045695 74.1045695,30 73,30 L47.0732536,30 Z M23,30 C21.8954305,30 21,29.1045695 21,28 C21,26.8954305 21.8954305,26 23,26 L35,26 C36.1045695,26 37,26.8954305 37,28 C37,29.1045695 36.1045695,30 35,30 L23,30 Z M37,32 L45,32 L45,24 L37,24 L37,32 Z M33,23.9962027 C33,21.7891609 34.7888304,20 36.9962027,20 L45.0037973,20 C47.2108391,20 49,21.7888304 49,23.9962027 L49,32.0037973 C49,34.2108391 47.2111696,36 45.0037973,36 L36.9962027,36 C34.7891609,36 33,34.2111696 33,32.0037973 L33,23.9962027 Z"/><path d="M47.0732536,50 C45.9686841,50 45.0732536,49.1045695 45.0732536,48 C45.0732536,46.8954305 45.9686841,46 47.0732536,46 L73,46 C74.1045695,46 75,46.8954305 75,48 C75,49.1045695 74.1045695,50 73,50 L47.0732536,50 Z M23,50 C21.8954305,50 21,49.1045695 21,48 C21,46.8954305 21.8954305,46 23,46 L35,46 C36.1045695,46 37,46.8954305 37,48 C37,49.1045695 36.1045695,50 35,50 L23,50 Z M37,52 L45,52 L45,44 L37,44 L37,52 Z M33,43.9962027 C33,41.7891609 34.7888304,40 36.9962027,40 L45.0037973,40 C47.2108391,40 49,41.7888304 49,43.9962027 L49,52.0037973 C49,54.2108391 47.2111696,56 45.0037973,56 L36.9962027,56 C34.7891609,56 33,54.2111696 33,52.0037973 L33,43.9962027 Z" transform="translate(48.000000, 48.000000) scale(-1, 1) translate(-48.000000, -48.000000) "/><path d="M47.0732536,70 C45.9686841,70 45.0732536,69.1045695 45.0732536,68 C45.0732536,66.8954305 45.9686841,66 47.0732536,66 L73,66 C74.1045695,66 75,66.8954305 75,68 C75,69.1045695 74.1045695,70 73,70 L47.0732536,70 Z M23,70 C21.8954305,70 21,69.1045695 21,68 C21,66.8954305 21.8954305,66 23,66 L35,66 C36.1045695,66 37,66.8954305 37,68 C37,69.1045695 36.1045695,70 35,70 L23,70 Z M37,72 L45,72 L45,64 L37,64 L37,72 Z M33,63.9962027 C33,61.7891609 34.7888304,60 36.9962027,60 L45.0037973,60 C47.2108391,60 49,61.7888304 49,63.9962027 L49,72.0037973 C49,74.2108391 47.2111696,76 45.0037973,76 L36.9962027,76 C34.7891609,76 33,74.2111696 33,72.0037973 L33,63.9962027 Z"/></g></g></svg>